<svg width="48" height="31" viewBox="0 0 48 31" fill="none" xmlns="http://www.w3.org/2000/svg">
<path d="M0.540456 4.0857C-0.205258 4.53141 -0.170972 5.78284 0.591885 6.1857C0.823314 6.29713 3.22331 6.31427 23.589 6.31427C45.9947 6.31427 46.329 6.31427 46.6033 6.14284C47.3319 5.7057 47.3319 4.52284 46.6033 4.0857C46.329 3.91427 45.9947 3.91427 23.5719 3.91427C1.14903 3.91427 0.814742 3.91427 0.540456 4.0857Z" fill="white"/>
<path d="M0.540456 16.0857C-0.205258 16.5314 -0.170972 17.7828 0.591885 18.1857C0.823314 18.2971 1.9976 18.3143 10.9462 18.3143C20.6747 18.3143 21.0519 18.3057 21.309 18.1514C22.0205 17.7228 22.0205 16.5057 21.309 16.0771C21.0519 15.9228 20.6747 15.9143 10.929 15.9143C1.04617 15.9143 0.806171 15.9228 0.540456 16.0857Z" fill="white"/>
<path d="M0.728907 27.8629C0.26605 28.0686 0.0603354 28.3771 0.0260497 28.9257C-0.0168075 29.5171 0.188907 29.92 0.643193 30.1086C1.09748 30.2971 33.0603 30.2886 33.4289 30.1C34.3032 29.6543 34.2689 28.3429 33.3861 27.9143C33.0346 27.7429 32.8032 27.7429 17.0061 27.7429C3.84891 27.7514 0.943193 27.7686 0.728907 27.8629Z" fill="white"/>
</svg>
